#!OML:ASF E:\motion texture\Top Level 1\Subject 1\Session 1\male.ASF
:FULLY-SPECIFIED
:DEGREES
506
root -23.383 17.962 6.50701 27.6259 -81.9874 -21.887
lowerback -1.93878 4.08403 -0.643516
upperback -1.57246 5.44275 -0.339448
thorax -0.555265 2.72149 0.0865508
lowerneck -15.7334 -1.14529 -4.61195
upperneck 11.1607 -1.83931 8.65362
head 6.08831 -0.412704 3.34474
rclavicle -4.93483e-014 -7.55382e-015
rhumerus 23.5725 26.2901 -67.0641
rradius 84.8971
rwrist 23.0325
rhand -30.5997 -22.9286
rfingers 7.12502
rthumb -3.89658 -52.8727
lclavicle -4.93483e-014 -7.55382e-015
lhumerus 10.1601 -19.4986 82.1499
lradius 77.1492
lwrist -7.43818
lhand -19.7091 32.4485
lfingers 7.12502
lthumb 6.62061 62.325
rfemur -27.2222 -14.5014 22.5588
rtibia 55.1805
rfoot -1.05332 -19.1516
rtoes 5.62566
lfemur -13.9585 -2.89848 -18.5766
ltibia 21.1502
lfoot -9.87093 -1.70107
ltoes 0.324576
507
root -23.5277 17.9666 6.50612 25.7956 -81.7033 -20.0054
lowerback -1.92276 3.98656 -0.810234
upperback -1.602 5.31414 -0.368192
thorax -0.606072 2.65846 0.144605
lowerneck -15.5991 -1.222 -4.70894
upperneck 10.8625 -1.92757 8.79392
head 5.98047 -0.456096 3.3933
rclavicle 4.14963e-015 5.96354e-015
rhumerus 24.9207 25.8014 -66.3879
rradius 84.5278
rwrist 22.8821
rhand -30.7641 -23.0577
rfingers 7.12502
rthumb -4.05538 -52.9988
lclavicle 4.14963e-015 5.96354e-015
lhumerus 12.056 -19.7792 81.5989
lradius 76.979
lwrist -7.18727
lhand -19.7929 32.7527
lfingers 7.12502
lthumb 6.53979 62.6317
rfemur -27.8755 -14.7572 22.4197
rtibia 54.2255
rfoot -1.53139 -19.262
rtoes 5.72913
lfemur -13.3448 -2.90222 -18.726
ltibia 20.8929
lfoot -10.1753 -1.88069
ltoes 0.313882
508
root -23.6728 17.9704 6.50516 24.1479 -81.4241 -18.2995
lowerback -1.91245 3.8893 -0.969667
upperback -1.63513 5.18555 -0.394683
thorax -0.656367 2.59547 0.201483
lowerneck -15.4682 -1.29487 -4.80182
upperneck 10.5671 -2.01028 8.92775
head 5.87403 -0.497303 3.43984
rclavicle 4.00054e-015 3.97569e-016
rhumerus 26.2677 25.2967 -65.7264
rradius 84.1222
rwrist 22.7379
rhand -30.9333 -23.1881
rfingers 7.12502
rthumb -4.21876 -53.126
lclavicle 4.00054e-015 3.97569e-016
lhumerus 13.9413 -20.0104 81.0531
lradius 76.7757
lwrist -6.91998
lhand -19.8752 33.0806
lfingers 7.12502
lthumb 6.46025 62.962
rfemur -28.4889 -14.9824 22.2822
rtibia 53.1494
rfoot -2.00169 -19.343
rtoes 5.76459
lfemur -12.7364 -2.90063 -18.8648
ltibia 20.6344
lfoot -10.4735 -2.05069
ltoes 0.294193
509
root -23.8182 17.9733 6.50406 22.6669 -81.1529 -16.7531
lowerback -1.90624 3.7927 -1.12205
upperback -1.67314 5.05757 -0.41917
thorax -0.708413 2.53282 0.256856
lowerneck -15.3401 -1.36328 -4.89182
upperneck 10.2753 -2.08694 9.05791
head 5.76919 -0.535881 3.4855
rclavicle -4.03781e-014 -9.54166e-015
rhumerus 27.6089 24.78 -65.0842
rradius 83.6816
rwrist 22.6009
rhand -31.1087 -23.3267
rfingers 7.12502
rthumb -4.38807 -53.2612
lclavicle -4.03781e-014 -9.54166e-015
lhumerus 15.8089 -20.1934 80.517
lradius 76.5403
lwrist -6.63473
lhand -19.9593 33.4372
lfingers 7.12502
lthumb 6.37913 63.3211
rfemur -29.0641 -15.1725 22.1465
rtibia 51.9592
rfoot -2.45589 -19.3892
rtoes 5.75969
lfemur -12.1364 -2.89251 -18.9918
ltibia 20.3793
lfoot -10.7661 -2.21221
ltoes 0.268197
510
root -23.9642 17.9755 6.50292 21.3068 -80.8916 -15.3228
lowerback -1.90482 3.69615 -1.27027
upperback -1.71432 4.92948 -0.44211
thorax -0.760289 2.47016 0.311946
lowerneck -15.2159 -1.42707 -4.97885
upperneck 9.98767 -2.15716 9.18342
head 5.66611 -0.571667 3.52999
rclavicle -1.69464e-014 -3.57812e-015
rhumerus 28.9442 24.2547 -64.462
rradius 83.2038
rwrist 22.4774
rhand -31.3013 -23.4671
rfingers 7.12502
rthumb -4.57406 -53.3977
lclavicle -1.69464e-014 -3.57812e-015
lhumerus 17.6544 -20.327 79.9966
lradius 76.2729
lwrist -6.32985
lhand -20.045 33.8263
lfingers 7.12502
lthumb 6.29633 63.7127
rfemur -29.5966 -15.3317 22.0061
rtibia 50.6615
rfoot -2.87545 -19.4097
rtoes 5.70088
lfemur -11.5409 -2.88067 -19.1133
ltibia 20.1273
lfoot -11.0528 -2.3661
ltoes 0.234828
511
root -24.1108 17.9768 6.50175 20.0552 -80.6419 -13.995
lowerback -1.90923 3.60024 -1.41392
upperback -1.75912 4.80207 -0.464214
thorax -0.811818 2.4079 0.365833
lowerneck -15.0974 -1.48666 -5.06188
upperneck 9.70631 -2.22188 9.30417
head 5.56584 -0.604983 3.57302
rclavicle 2.81777e-014 5.1684e-015
rhumerus 30.2697 23.7236 -63.862
rradius 82.6922
rwrist 22.3692
rhand -31.5033 -23.6168
rfingers 7.12502
rthumb -4.76914 -53.5431
lclavicle 2.81777e-014 5.1684e-015
lhumerus 19.4723 -20.4147 79.4959
lradius 75.974
lwrist -6.00338
lhand -20.134 34.2488
lfingers 7.12502
lthumb 6.21048 64.1378
rfemur -30.0896 -15.4581 21.8607
rtibia 49.2679
rfoot -3.25871 -19.412
rtoes 5.59484
lfemur -10.9532 -2.86566 -19.2293
ltibia 19.8828
lfoot -11.3337 -2.51145
ltoes 0.189649
512
root -24.2582 17.9771 6.50056 18.8955 -80.4059 -12.7536
lowerback -1.9212 3.50469 -1.5536
upperback -1.80666 4.67506 -0.485629
thorax -0.861185 2.34587 0.418829
lowerneck -14.983 -1.54046 -5.13887
upperneck 9.43012 -2.2792 9.41894
head 5.46749 -0.634938 3.61401
rclavicle -3.44643e-014 2.38542e-015
rhumerus 31.5838 23.1914 -63.2875
rradius 82.1479
rwrist 22.2796
rhand -31.7183 -23.7721
rfingers 7.12502
rthumb -4.97674 -53.6937
lclavicle -3.44643e-014 2.38542e-015
lhumerus 21.2571 -20.4557 79.0208
lradius 75.645
lwrist -5.65427
lhand -20.2237 34.7029
lfingers 7.12502
lthumb 6.12386 64.5944
rfemur -30.5442 -15.5522 21.7097
rtibia 47.7929
rfoot -3.6071 -19.3993
rtoes 5.43719
lfemur -10.3737 -2.84781 -19.341
ltibia 19.6479
lfoot -11.6086 -2.64886
ltoes 0.131591
513
root -24.4063 17.9765 6.49938 17.8133 -80.1839 -11.5856
lowerback -1.93915 3.40986 -1.6888
upperback -1.85733 4.54891 -0.506639
thorax -0.909646 2.28431 0.470202
lowerneck -14.8735 -1.58938 -5.21207
upperneck 9.1616 -2.33043 9.53053
head 5.37215 -0.661985 3.65412
rclavicle -6.96368e-014 1.19271e-015
rhumerus 32.8833 22.6615 -62.7395
rradius 81.5722
rwrist 22.2099
rhand -31.9453 -23.933
rfingers 7.12502
rthumb -5.19591 -53.8493
lclavicle -6.96368e-014 1.19271e-015
lhumerus 23.0037 -20.4541 78.5758
lradius 75.2862
lwrist -5.28129
lhand -20.3163 35.1871
lfingers 7.12502
lthumb 6.03442 65.0812
rfemur -30.9616 -15.6157 21.553
rtibia 46.2513
rfoot -3.92075 -19.3739
rtoes 5.23428
lfemur -9.80144 -2.82895 -19.449
ltibia 19.4249
lfoot -11.8778 -2.77833
ltoes 0.0569109
514
root -24.5552 17.9749 6.49817 16.7962 -79.9771 -10.4782
lowerback -1.96273 3.31553 -1.82011
upperback -1.91047 4.42336 -0.52731
thorax -0.956778 2.22308 0.520174
lowerneck -14.7724 -1.63307 -5.27933
upperneck 8.90159 -2.37506 9.63567
head 5.28044 -0.685897 3.69199
rclavicle -2.19284e-014 3.97569e-015
rhumerus 34.1691 22.1387 -62.2187
rradius 80.9679
rwrist 22.1619
rhand -32.185 -24.0842
rfingers 7.12502
rthumb -5.42734 -53.9947
lclavicle -2.19284e-014 3.97569e-015
lhumerus 24.7093 -20.4105 78.1651
lradius 74.898
lwrist -4.88429
lhand -20.4134 35.7004
lfingers 7.12502
lthumb 5.94067 65.5972
rfemur -31.3452 -15.648 21.3904
rtibia 44.658
rfoot -4.20023 -19.3401
rtoes 4.99531
lfemur -9.23939 -2.80901 -19.5545
ltibia 19.2177
lfoot -12.1407 -2.89998
ltoes -0.0351412
515
root -24.705 17.9723 6.49695 15.8349 -79.7854 -9.42317
lowerback -1.99258 3.22152 -1.94705
upperback -1.96545 4.29823 -0.547641
thorax -1.00156 2.16208 0.568516
lowerneck -14.6783 -1.67143 -5.3411
upperneck 8.65049 -2.41314 9.73569
head 5.19226 -0.706631 3.72808
rclavicle 5.24543e-014 3.57812e-015
rhumerus 35.4385 21.6265 -61.7258
rradius 80.3386
rwrist 22.1347
rhand -32.4332 -24.2397
rfingers 7.12502
rthumb -5.66698 -54.1439
lclavicle 5.24543e-014 3.57812e-015
lhumerus 26.3681 -20.3275 77.7929
lradius 74.4834
lwrist -4.46229
lhand -20.5133 36.2389
lfingers 7.12502
lthumb 5.84426 66.1383
rfemur -31.6962 -15.6498 21.2224
rtibia 43.0282
rfoot -4.44734 -19.3014
rtoes 4.74269
lfemur -8.68834 -2.78894 -19.6572
ltibia 19.0308
lfoot -12.3979 -3.01484
ltoes -0.143654
516
root -24.8558 17.9687 6.49559 14.932 -79.6093 -8.42613
lowerback -2.02521 3.12793 -2.0682
upperback -2.02229 4.17358 -0.566403
thorax -1.046 2.10134 0.615437
lowerneck -14.5895 -1.70388 -5.39584
upperneck 8.4073 -2.44386 9.828
head 5.10686 -0.723934 3.76137
rclavicle 3.10725e-014 -7.95139e-016
rhumerus 36.6897 21.1301 -61.262
rradius 79.6846
rwrist 22.1335
rhand -32.6974 -24.4034
rfingers 7.12502
rthumb -5.92206 -54.3006
lclavicle 3.10725e-014 -7.95139e-016
lhumerus 27.9737 -20.2066 77.4642
lradius 74.0482
lwrist -4.01002
lhand -20.6044 36.8055
lfingers 7.12502
lthumb 5.75634 66.7073
rfemur -32.0121 -15.6175 21.0511
rtibia 41.3728
rfoot -4.66217 -19.2624
rtoes 4.48155
lfemur -8.14662 -2.76871 -19.7544
ltibia 18.8658
lfoot -12.6485 -3.12222
ltoes -0.286299
517
root -25.0075 17.9642 6.4941 14.0726 -79.4479 -7.47154
lowerback -2.06106 3.03426 -2.1853
upperback -2.08154 4.04875 -0.58385
thorax -1.09051 2.04055 0.661632
lowerneck -14.5043 -1.72946 -5.44546
upperneck 8.17145 -2.46607 9.9164
head 5.02371 -0.737107 3.79345
rclavicle -5.47031e-014 -3.97569e-016
rhumerus 37.9189 20.6532 -60.8285
rradius 79.0093
rwrist 22.1603
rhand -32.975 -24.5794
rfingers 7.12502
rthumb -6.19008 -54.4689
lclavicle -5.47031e-014 -3.97569e-016
lhumerus 29.5214 -20.0514 77.1831
lradius 73.5891
lwrist -3.53783
lhand -20.7024 37.3914
lfingers 7.12502
lthumb 5.66166 67.2958
rfemur -32.2962 -15.5537 20.8757
rtibia 39.708
rfoot -4.84822 -19.2261
rtoes 4.21398
lfemur -7.61706 -2.74998 -19.8474
ltibia 18.728
lfoot -12.892 -3.22532
ltoes -0.450265
518
root -25.1605 17.9587 6.49251 13.2598 -79.3029 -6.56533
lowerback -2.10092 2.94171 -2.2964
upperback -2.14098 3.92545 -0.599054
thorax -1.13237 1.98051 0.707078
lowerneck -14.4268 -1.74964 -5.48849
upperneck 7.94585 -2.48165 9.99711
head 4.94441 -0.747079 3.82272
rclavicle -8.7838e-015 -9.14409e-015
rhumerus 39.1267 20.197 -60.4241
rradius 78.3165
rwrist 22.2071
rhand -33.2589 -24.7539
rfingers 7.12502
rthumb -6.46417 -54.6353
lclavicle -8.7838e-015 -9.14409e-015
lhumerus 31.0106 -19.8651 76.9534
lradius 73.1121
lwrist -3.03693
lhand -20.7945 37.9978
lfingers 7.12502
lthumb 5.57275 67.9045
rfemur -32.546 -15.4564 20.6976
rtibia 38.0438
rfoot -5.00473 -19.1934
rtoes 3.94299
lfemur -7.09631 -2.73233 -19.9348
ltibia 18.6171
lfoot -13.1273 -3.32391
ltoes -0.653118
519
root -25.3147 17.9522 6.49077 12.4876 -79.1744 -5.70029
lowerback -2.14568 2.84943 -2.40245
upperback -2.20214 3.80252 -0.612311
thorax -1.1727 1.92067 0.751965
lowerneck -14.3531 -1.76431 -5.52228
upperneck 7.73128 -2.49116 10.0698
head 4.86856 -0.754134 3.84857
rclavicle 2.64135e-014 1.35174e-014
rhumerus 40.3083 19.7684 -60.0513
rradius 77.61
rwrist 22.2824
rhand -33.5521 -24.9481
rfingers 7.12502
rthumb -6.74718 -54.8206
lclavicle 2.64135e-014 1.35174e-014
lhumerus 32.4341 -19.6491 76.7777
lradius 72.6178
lwrist -2.50891
lhand -20.8869 38.6152
lfingers 7.12502
lthumb 5.48354 68.5242
rfemur -32.7645 -15.3226 20.5161
rtibia 36.3921
rfoot -5.13336 -19.1626
rtoes 3.67307
lfemur -6.58892 -2.71629 -20.0162
ltibia 18.5391
lfoot -13.3545 -3.41988
ltoes -0.892096
520
root -25.4703 17.9449 6.48887 11.741 -79.0603 -4.86584
lowerback -2.19171 2.75801 -2.50315
upperback -2.26224 3.68076 -0.623765
thorax -1.21069 1.86139 0.795858
lowerneck -14.2875 -1.77428 -5.55277
upperneck 7.52724 -2.49499 10.1395
head 4.79687 -0.758206 3.87356
rclavicle 1.10947e-014 -8.74653e-015
rhumerus 41.4647 19.3657 -59.7058
rradius 76.892
rwrist 22.3865
rhand -33.8576 -25.1475
rfingers 7.12502
rthumb -7.0421 -55.0103
lclavicle 1.10947e-014 -8.74653e-015
lhumerus 33.7929 -19.4101 76.6589
lradius 72.1109
lwrist -1.95461
lhand -20.9746 39.2509
lfingers 7.12502
lthumb 5.39884 69.1621
rfemur -32.9467 -15.1522 20.3266
rtibia 34.7616
rfoot -5.22327 -19.1373
rtoes 3.41865
lfemur -6.09265 -2.70118 -20.0926
ltibia 18.4988
lfoot -13.5732 -3.51715
ltoes -1.17753
